# xmcd
#
# Track frame offsets:
# 150
# 14185
# 32950
# 52195
# 58955
# 74622
# 88582
# 102905
# 125677
# 142520
# 159115
# 176209
#
# Disc length: 2570 seconds
#
#
# Revision: 2
# Processed by: cddbd v1.5.1PL2 Copyright (c) Steve Scherf et al.
# Submitted via: FreeRIP 2.941 
#
DISCID=b00a080c
DTITLE=Jumpin' Johnny Sansone - Crescent City Moon
DYEAR=1900
DGENRE=
TTITLE0=Give Me a Dollar
TTITLE1=Anything Anytime
TTITLE2=Your Kind of Love
TTITLE3=Popeyes and a Hubigs, Part II
TTITLE4=Sweet Baby
TTITLE5=Crawfish Walk
TTITLE6=Destination Unknown
TTITLE7=Crescent City Moon
TTITLE8=Uncle Joe
TTITLE9=Just Say Yes
TTITLE10=The Talkin' Is Over (The Walkin' Has Begun)
TTITLE11=Please Please Me
EXTD=As heard on\nBluesfestRadio.com
EXTT0=
EXTT1=
EXTT2=
EXTT3=
EXTT4=
EXTT5=
EXTT6=
EXTT7=
EXTT8=
EXTT9=
EXTT10=
EXTT11=
PLAYORDER=
